<?xml version="1.0" standalone="no"?><!DOCTYPE svg PUBLIC "-//W3C//DTD SVG 1.1//EN" "http://www.w3.org/Graphics/SVG/1.1/DTD/svg11.dtd"><svg t="1742446706962" class="icon" viewBox="0 0 1024 1024" version="1.1" xmlns="http://www.w3.org/2000/svg" p-id="6046" xmlns:xlink="http://www.w3.org/1999/xlink" width="200" height="200"><path d="M941.284 420.24l-221-221.04v535.44l120.624-120.624 40.02-40.016 60.356-60.356c25.8-25.804 25.8-67.644 0-93.404z" fill="#87796F" p-id="6047"></path><path d="M945.524 416l-221-221.044a5.996 5.996 0 1 0-10.24 4.244v535.44a6.004 6.004 0 0 0 10.244 4.244l120.624-120.628a6 6 0 1 0-8.484-8.484l-110.384 110.388V213.688l210.76 210.8c11.344 11.324 17.588 26.396 17.588 42.436s-6.248 31.128-17.592 42.472l-60.356 60.356a6 6 0 1 0 8.484 8.484l60.356-60.356c13.612-13.608 21.108-31.708 21.108-50.956s-7.496-37.34-21.108-50.924z" fill="#3A312A" p-id="6048"></path><path d="M639.976 64.848H143.668c-44.348 0-80.3 35.952-80.3 80.3v732.768c0 44.348 35.952 80.3 80.3 80.3h496.308c44.348 0 80.3-35.952 80.3-80.3V145.148c0-44.348-35.952-80.3-80.3-80.3z" fill="#D7E057" p-id="6049"></path><path d="M639.976 58.848H143.668c-47.584 0-86.3 38.716-86.3 86.3V476a6 6 0 1 0 12 0V145.148c0-40.968 33.332-74.3 74.3-74.3h496.308c40.968 0 74.3 33.332 74.3 74.3v732.764c0 40.972-33.332 74.304-74.3 74.304H143.668c-40.968 0-74.3-33.332-74.3-74.304v-345.252a6 6 0 1 0-12 0v345.252c0 47.588 38.716 86.304 86.3 86.304h496.308c47.584 0 86.3-38.716 86.3-86.304V145.148c0-47.584-38.712-86.3-86.3-86.3z" fill="#3A312A" p-id="6050"></path><path d="M235.296 107.596l-11.224 26.744c-3.304 7.924-5.944 14.364-8.42 21.296h-0.332c-2.804-7.26-5.116-13.208-8.584-21.296l-11.392-26.744h-28.724l35.16 65.704v45.56h25.092V172.476L263.52 107.6h-28.224z" fill="#87796F" p-id="6051"></path><path d="M268.708 104.576a6 6 0 0 0-5.184-2.976h-28.228a6 6 0 0 0-5.532 3.68l-11.228 26.752a904.28 904.28 0 0 0-3.108 7.52c-0.972-2.38-2-4.84-3.168-7.564l-11.392-26.744a6 6 0 0 0-5.52-3.648h-28.724a6 6 0 0 0-5.292 8.832l34.452 64.376v44.056a6 6 0 0 0 6 6h25.092a6 6 0 0 0 6-6V174.056l35.872-63.508a5.984 5.984 0 0 0-0.04-5.972zM221.656 169.528a6 6 0 0 0-0.776 2.948v40.384h-13.092v-39.56c0-0.988-0.244-1.96-0.708-2.832l-30.44-56.872h14.744l9.844 23.104c3.324 7.752 5.524 13.388 8.5 21.092 0.896 2.316 3.448 3.84 5.928 3.84a6 6 0 0 0 5.652-3.98c2.488-6.972 5.236-13.64 8.304-20.996l9.68-23.064h13.96l-31.596 55.936z" fill="#3A312A" p-id="6052"></path><path d="M325.12 105.78c-32.852 0-54.148 24.928-54.148 58.272 0 31.696 19.312 56.624 52.332 56.624 32.52 0 54.64-22.12 54.64-58.604 0-30.704-18.652-56.292-52.824-56.292z m-0.496 94.924c-16.84 0-27.072-15.352-27.072-37.144 0-21.624 9.904-37.8 26.908-37.8 17.336 0 26.908 17.168 26.908 37.144-0.004 21.62-9.744 37.8-26.744 37.8z" fill="#87796F" p-id="6053"></path><path d="M325.12 99.78c-35.416 0-60.148 26.428-60.148 64.272 0 36.872 23.988 62.62 58.332 62.62 36.84 0 60.644-25.36 60.644-64.6-0.004-36.672-24.192-62.292-58.828-62.292z m-1.816 114.896c-27.712 0-46.332-20.344-46.332-50.62 0-31.264 19.348-52.272 48.148-52.272 32.348 0 46.824 25.256 46.824 50.292 0 32.444-18.636 52.6-48.64 52.6z m1.152-94.92c-19.684 0-32.908 17.6-32.908 43.8 0 25.804 13.292 43.144 33.072 43.144 19.584 0 32.74-17.6 32.74-43.8 0.004-25.4-13.528-43.144-32.904-43.144z m0.168 74.948c-15.552 0-21.072-16.776-21.072-31.144 0-14.668 5.476-31.8 20.908-31.8 14.444 0 20.908 15.64 20.908 31.144-0.004 14.668-5.436 31.8-20.744 31.8z" fill="#3A312A" p-id="6054"></path><path d="M454.232 155.14v19.644h17.168v23.276c-1.98 0.992-6.604 1.652-12.38 1.652-20.636 0-34.996-13.536-34.996-36.48 0-24.1 15.848-35.984 36.812-35.984 12.216 0 19.808 2.144 25.916 4.788l5.284-20.14c-5.448-2.644-16.508-5.448-30.872-5.448-36.484 0-63.392 21.128-63.556 58.104-0.164 16.344 5.448 30.876 15.684 40.448 10.236 9.904 24.928 15.02 45.232 15.02 14.692 0 29.384-3.632 37.144-6.272V155.14h-41.436z" fill="#87796F" p-id="6055"></path><path d="M495.668 149.14h-41.432a6 6 0 0 0-6 6v19.644a6 6 0 0 0 6 6h11.168v12.584c-1.556 0.192-3.668 0.344-6.384 0.344-17.884 0-28.996-11.68-28.996-30.48 0-27.068 21.548-29.988 30.812-29.988 11.98 0 18.62 2.172 23.536 4.296a6 6 0 0 0 8.184-3.984l5.284-20.14a6 6 0 0 0-3.184-6.92c-6.036-2.924-18-6.052-33.488-6.052-41.432 0-69.384 25.752-69.556 64.044-0.184 18.172 6.06 34.116 17.512 44.824 11.62 11.244 27.78 16.708 49.404 16.708 14.512 0 29.7-3.404 39.072-6.588a5.996 5.996 0 0 0 4.068-5.68V155.14a6 6 0 0 0-6-6z m-6 60.2c-8.424 2.44-20.012 4.676-31.14 4.676-18.356 0-31.788-4.36-41.136-13.404-9.036-8.448-13.932-21.24-13.78-36.04 0.144-32.156 22.196-52.132 57.556-52.132 10.052 0 18.264 1.452 23.704 3.12l-2.244 8.556c-5.24-1.588-12.172-2.876-21.792-2.876-26.008 0-42.812 16.48-42.812 41.988 0 25.412 16.476 42.48 40.996 42.48 3.924 0 11.092-0.296 15.068-2.284a6 6 0 0 0 3.316-5.368v-23.272a6 6 0 0 0-6-6h-11.168v-7.644h29.432v48.2z" fill="#3A312A" p-id="6056"></path><path d="M582.52 107.596h-33.016l-34.008 111.264h26.084l7.924-28.56h31.86l8.584 28.56h27.072l-34.5-111.264z m-29.384 63.888l6.604-23.608c1.816-6.44 3.468-14.856 5.12-21.46h0.328c1.652 6.604 3.632 14.856 5.612 21.46l6.932 23.608h-24.596z" fill="#87796F" p-id="6057"></path><path d="M571.844 128.332l-0.836-3.372c-0.668-2.668-3.4-4.544-6.152-4.544a6 6 0 0 0-5.82 4.548 377.26 377.26 0 0 0-2.024 8.688c-0.984 4.368-2 8.888-3.052 12.604l-6.604 23.608a6 6 0 0 0 5.776 7.62h24.596a6.008 6.008 0 0 0 5.76-7.692l-6.944-23.64c-1.612-5.384-3.252-11.992-4.7-17.82z m-10.8 37.152l4.232-15.128 4.44 15.128h-8.672z m61.708 51.6l-34.5-111.26a6 6 0 0 0-5.732-4.224h-33.012a6 6 0 0 0-5.74 4.248l-34.008 111.26a6 6 0 0 0 5.74 7.752h26.084c2.696 0 5.06-1.796 5.78-4.396l6.704-24.164h22.836l7.3 24.284a6 6 0 0 0 5.748 4.272h27.072a5.988 5.988 0 0 0 5.728-7.772z m-28.344-4.224l-7.3-24.284a5.996 5.996 0 0 0-5.744-4.272h-31.86c-2.696 0-5.06 1.796-5.78 4.396l-6.704 24.164h-13.412l30.336-99.26h24.152l30.78 99.26h-14.468z" fill="#3A312A" p-id="6058"></path><path d="M902.964 103.556c-3.896 46.256-52.096 53.556-52.096 53.556 41.388 1.948 51.7 56.236 51.7 56.236 0.884-38.708 53.284-56.808 53.284-56.808-39.256-2.348-52.888-52.984-52.888-52.984z" fill="#D7E057" p-id="6059"></path><path d="M956.212 150.556c-34.42-2.064-47.328-48.1-47.456-48.568a6.008 6.008 0 0 0-11.772 1.06c-3.44 40.864-45.252 47.856-47.016 48.128a6 6 0 0 0 0.616 11.928c36.112 1.704 45.996 50.876 46.092 51.376a6 6 0 0 0 11.892-0.992c0.776-34.036 48.768-51.108 49.252-51.276a6 6 0 0 0-1.608-11.656z m-54.264 41.38c-5.424-12.524-14.836-27.632-30.348-35.508 11.724-5.62 25.636-15.652 32.808-33.092 6.204 12.284 16.8 27.524 33.336 34.892-12.028 6.56-27.688 17.624-35.796 33.708z" fill="#3A312A" p-id="6060"></path><path d="M816.172 171.48c-2.756 32.716-36.848 37.884-36.848 37.884 29.272 1.376 36.568 39.776 36.568 39.776 0.624-27.376 37.688-40.18 37.688-40.18-27.768-1.664-37.408-37.48-37.408-37.48z" fill="#D7E057" p-id="6061"></path><path d="M853.936 202.968c-23.068-1.384-31.892-32.748-31.976-33.064a6 6 0 0 0-11.768 1.064c-2.316 27.484-30.588 32.264-31.768 32.452a6 6 0 0 0 0.616 11.928c24.144 1.136 30.896 34.58 30.956 34.908a6 6 0 0 0 11.892-0.984c0.52-22.836 33.324-34.532 33.652-34.644a6 6 0 0 0-1.604-11.66z m-38.34 27.176c-3.696-7.544-9.36-15.788-17.788-21.116 7.424-4.164 14.788-10.52 19.484-19.668 4.228 7.496 10.62 15.82 19.764 20.9-7.396 4.4-15.956 10.956-21.46 19.884z" fill="#3A312A" p-id="6062"></path><path d="M816.172 64.848c-2.756 32.716-36.848 37.88-36.848 37.88 29.272 1.376 36.568 39.776 36.568 39.776 0.624-27.376 37.688-40.18 37.688-40.18-27.768-1.66-37.408-37.476-37.408-37.476z" fill="#D7E057" p-id="6063"></path><path d="M853.936 96.34c-23.068-1.384-31.892-32.748-31.976-33.064a6 6 0 0 0-11.768 1.064c-2.316 27.484-30.588 32.264-31.768 32.452a6 6 0 0 0 0.616 11.928c24.144 1.136 30.896 34.58 30.956 34.908a6 6 0 0 0 11.892-0.984c0.52-22.836 33.324-34.532 33.652-34.644a6 6 0 0 0-1.604-11.66z m-38.34 27.176c-3.696-7.544-9.36-15.788-17.788-21.116 7.424-4.164 14.788-10.52 19.484-19.668 4.228 7.496 10.62 15.82 19.764 20.9-7.396 4.4-15.956 10.952-21.46 19.884z" fill="#3A312A" p-id="6064"></path><path d="M639.968 70.856h-54.72c41 0 74.32 33.32 74.32 74.28v732.8c0 40.96-33.32 74.28-74.32 74.28h54.72c40.96 0 74.32-33.32 74.32-74.28v-732.8c0-40.96-33.36-74.28-74.32-74.28z" fill="#B9BC39" p-id="6065"></path><path d="M619.948 321.052h-200.82a6 6 0 1 0 0 12h200.82a6 6 0 1 0 0-12zM619.948 382.572h-200.82a6 6 0 1 0 0 12h200.82a6 6 0 1 0 0-12zM619.948 444.088h-200.82a6 6 0 1 0 0 12h200.82a6 6 0 1 0 0-12zM619.948 625h-167.408a6 6 0 1 0 0 12h167.408a6 6 0 1 0 0-12zM619.948 686.524h-167.408a6 6 0 1 0 0 12h167.408a6 6 0 1 0 0-12zM619.948 813.208H331.236a6 6 0 1 0 0 12h288.712a6 6 0 1 0 0-12zM619.948 874.728H331.236a6 6 0 1 0 0 12h288.712a6 6 0 1 0 0-12z" fill="#3A312A" p-id="6066"></path><path d="M217.376 847.72l0.9 28.288h-34.504a16.872 16.872 0 0 0-16.876 16.876 16.88 16.88 0 0 0 16.876 16.908h54.744v-0.12c13.272-1.052 16.996-12.672 16.996-26.904l0.992-35.044h-39.128z" fill="#FCE8CB" p-id="6067"></path><path d="M260.808 843.536a6.008 6.008 0 0 0-4.304-1.816h-39.128a5.996 5.996 0 0 0-5.996 6.192l0.704 22.096h-28.312a22.9 22.9 0 0 0-22.876 22.876c0 12.628 10.26 22.908 22.876 22.908h54.744c0.608 0 1.192-0.092 1.748-0.268 9.988-1.24 21.252-8.096 21.248-32.588l0.992-35.044a6.02 6.02 0 0 0-1.696-4.356z m-11.296 39.224c0 20.016-8.036 20.652-11.468 20.924a7.084 7.084 0 0 0-0.72 0.1H183.772a10.888 10.888 0 1 1 0-21.784h34.504a5.996 5.996 0 0 0 5.996-6.192l-0.704-22.096h26.76l-0.816 29.048z" fill="#3A312A" p-id="6068"></path><path d="M401.644 701.4c-1.8-3.24-4.08-6.2-6.52-9.04l-72.84-83.6c-3.08 2.56-7.04 4.12-11.36 4.12h-84.88c-7.36 0-13.64-4.48-16.36-10.8l1.76 56.68 1.44 46.12 4.48 142.84h39.12l1.76-61.88 1.12-41.28 0.12-3.16 0.4-15.2 2.96-105.2 80.16 80.96-28.12 3.88 3.88 41.92 53.32-6.04c4.64-0.56 9.32-1.52 13.76-2.96 8.56-2.84 15.4-5.56 18.76-13.28 3.56-8.24 2.24-14.96-2.96-24.08z" fill="#F16C7A" p-id="6069"></path><path d="M406.892 698.488c-1.764-3.172-4.056-6.364-7.244-10.072l-72.84-83.6a6 6 0 0 0-8.36-0.672c-2.12 1.76-4.788 2.736-7.52 2.736h-84.88a11.816 11.816 0 0 1-10.848-7.172 6 6 0 1 0-11.508 2.56l7.68 245.64a6 6 0 0 0 5.996 5.812h39.12a6 6 0 0 0 6-5.828l5.964-212.704 61.852 62.468-16.236 2.24a6 6 0 0 0-5.152 6.5l3.88 41.916a5.992 5.992 0 0 0 6.648 5.404l53.36-6.044a78.816 78.816 0 0 0 14.928-3.224c7.892-2.612 17.712-5.868 22.376-16.58l0.004-0.016c5.124-11.852 1.464-21.144-3.22-29.364z m-150.048-77.656l-6.192 220.888h-27.476l-7.036-225c3.048 1.4 6.412 2.16 9.9 2.16h31.188a6.112 6.112 0 0 0-0.384 1.952z m142.256 102.252c-2.16 4.956-6.416 7.084-15.112 9.964-3.868 1.256-8.112 2.168-12.584 2.708l-47.236 5.348-2.788-30.104 22.436-3.092a6.008 6.008 0 0 0 3.444-10.168l-78.08-78.86h41.736c3.544 0 7.032-0.804 10.204-2.312l69.448 79.704c2.616 3.048 4.468 5.6 5.856 8.104 4.58 8.016 5.252 12.736 2.676 18.708z" fill="#3A312A" p-id="6070"></path><path d="M288.284 446.452h-39.6c-22.336 0-40.444 18.108-40.444 40.444v108.172a17.8 17.8 0 0 0 17.8 17.796h84.892a17.8 17.8 0 0 0 17.796-17.796v-108.172c0-22.336-18.108-40.444-40.444-40.444z" fill="#F16C7A" p-id="6071"></path><path d="M288.284 440.448h-39.6c-25.608 0-46.444 20.836-46.444 46.444v108.172a23.824 23.824 0 0 0 23.796 23.796h84.896a23.824 23.824 0 0 0 23.8-23.796v-108.172c0-25.608-20.836-46.444-46.448-46.444z m34.448 154.62a11.812 11.812 0 0 1-11.8 11.796H226.036a11.808 11.808 0 0 1-11.796-11.796v-108.172c0-18.992 15.452-34.444 34.444-34.444h39.6c18.996 0 34.444 15.452 34.444 34.444v108.172z" fill="#3A312A" p-id="6072"></path><path d="M268.356 274.876m-35.752 0a35.752 35.752 0 1 0 71.504 0 35.752 35.752 0 1 0-71.504 0Z" fill="#87796F" p-id="6073"></path><path d="M268.356 233.12c-23.02 0-41.752 18.732-41.752 41.752s18.732 41.752 41.752 41.752c23.02 0 41.752-18.732 41.752-41.752S291.376 233.12 268.356 233.12z m0 71.508c-16.408 0-29.752-13.348-29.752-29.752s13.344-29.752 29.752-29.752 29.752 13.348 29.752 29.752-13.348 29.752-29.752 29.752z" fill="#3A312A" p-id="6074"></path><path d="M207.988 363.672a14.016 14.016 0 1 0 0 28.036 14.016 14.016 0 0 0 0-28.036z" fill="#FCE8CB" p-id="6075"></path><path d="M207.988 357.672c-11.036 0-20.016 8.98-20.016 20.016s8.98 20.016 20.016 20.016c11.036 0 20.016-8.98 20.016-20.016s-8.98-20.016-20.016-20.016z m0 28.032c-4.42 0-8.016-3.596-8.016-8.016s3.596-8.016 8.016-8.016 8.016 3.596 8.016 8.016-3.596 8.016-8.016 8.016z" fill="#3A312A" p-id="6076"></path><path d="M330.328 363.672a14.016 14.016 0 1 0 0 28.036 14.016 14.016 0 0 0 0-28.036z" fill="#FCE8CB" p-id="6077"></path><path d="M330.328 357.672c-11.036 0-20.016 8.98-20.016 20.016s8.98 20.016 20.016 20.016c11.036 0 20.016-8.98 20.016-20.016s-8.98-20.016-20.016-20.016z m0 28.032c-4.42 0-8.016-3.596-8.016-8.016s3.596-8.016 8.016-8.016 8.016 3.596 8.016 8.016-3.596 8.016-8.016 8.016z" fill="#3A312A" p-id="6078"></path><path d="M269.156 308.748c-34.316 0-62.136 27.82-62.136 62.136s34.372 86.992 62.136 86.992c29.088 0 62.136-52.676 62.136-86.992 0.004-34.316-27.816-62.136-62.136-62.136z" fill="#FCE8CB" p-id="6079"></path><path d="M269.156 302.748c-37.572 0-68.136 30.568-68.136 68.136 0 36.72 36.548 92.992 68.136 92.992 32.244 0 68.14-55.428 68.14-92.992 0-37.572-30.568-68.136-68.14-68.136z m0 149.128c-22.56 0-56.136-48.444-56.136-80.992 0-30.952 25.184-56.136 56.136-56.136 30.956 0 56.14 25.184 56.14 56.136 0 31.244-30.652 80.992-56.14 80.992z" fill="#3A312A" p-id="6080"></path><path d="M288.14 405.552a6 6 0 0 0-7.724 3.512c-0.708 1.884-4.156 6.772-11.52 6.772-5.8 0-9.304-2.168-11.724-7.248a6 6 0 0 0-10.836 5.156c4.388 9.22 12.188 14.088 22.56 14.088 11.884 0 20.128-7.548 22.756-14.564a6 6 0 0 0-3.512-7.716z" fill="#3A312A" p-id="6081"></path><path d="M352.816 361.132c-1.128-7.332-2.82-14.544-5.444-21.524-12.212-32.592-35.292-57.556-70.252-61.62 1.712 12.504 4.24 24.928 9.704 36.264 3.752 7.776 8.808 14.876 14.232 21.604 14.892 18.492 33.112 34.748 53.764 46.296-0.392-7.06-0.936-14.1-2.004-21.02z" fill="#87796F" p-id="6082"></path><path d="M358.748 360.22c-1.3-8.44-3.184-15.876-5.756-22.72-14.336-38.252-41.032-61.504-75.18-65.472a5.992 5.992 0 0 0-6.64 6.772c1.496 10.928 4.012 25.128 10.244 38.056 3.44 7.128 8.192 14.364 14.964 22.764 16.04 19.912 35.236 36.424 55.508 47.768a6.008 6.008 0 0 0 6.104-0.152c1.856-1.16 2.932-3.24 2.812-5.42-0.324-5.976-0.86-13.836-2.056-21.596z m-53.02-28.132c-6.18-7.668-10.472-14.164-13.5-20.444-4.128-8.568-6.412-17.752-7.912-26.34 25.7 5.916 45.916 25.66 57.44 56.416 2.28 6.064 3.956 12.712 5.132 20.332 0.46 2.98 0.82 5.996 1.1 8.916-15.336-10.124-29.792-23.396-42.26-38.88z" fill="#3A312A" p-id="6083"></path><path d="M266.832 277.384c-42.856 0-84.348 35.992-83.32 80.304 0.096 4.512 0.428 9.04 0.952 13.552 45.816-19.792 90.496-45.48 121.2-84.132-11.084-6.224-24.016-9.724-38.832-9.724z" fill="#87796F" p-id="6084"></path><path d="M311.552 285.948a5.984 5.984 0 0 0-2.948-4.076c-12.4-6.96-26.452-10.492-41.768-10.492-24.012 0-47.824 10.276-65.324 28.192-15.964 16.34-24.488 37.028-23.992 58.248 0.096 4.564 0.432 9.312 0.992 14.116a5.996 5.996 0 0 0 8.34 4.812c57.42-24.808 96.668-52.104 123.516-85.916a6 6 0 0 0 1.184-4.884zM189.708 362.38c-0.096-1.628-0.16-3.244-0.196-4.828-0.416-17.968 6.892-35.584 20.58-49.588 15.036-15.392 36.252-24.58 56.744-24.58 10.592 0 20.44 1.928 29.376 5.748-24.18 28.12-58.36 51.624-106.504 73.248z" fill="#3A312A" p-id="6085"></path><path d="M233.956 380.404c-5.772 0-10.448 3.496-10.448 7.812s4.676 7.812 10.448 7.812 10.448-3.496 10.448-7.812-4.68-7.812-10.448-7.812zM302.072 380.404c-5.772 0-10.448 3.496-10.448 7.812s4.676 7.812 10.448 7.812c5.768 0 10.448-3.496 10.448-7.812s-4.676-7.812-10.448-7.812z" fill="#F5978A" p-id="6086"></path><path d="M259.084 361.636a6 6 0 0 0-7.724 3.512c-0.408 1.096-2.656 4.228-7.428 4.228-3.832 0-6.044-1.364-7.632-4.7a6 6 0 1 0-10.836 5.156c3.596 7.552 9.98 11.544 18.468 11.544 9.732 0 16.5-6.228 18.668-12.016a6 6 0 0 0-3.516-7.724zM308.688 361.632a6.008 6.008 0 0 0-7.724 3.52c-0.408 1.092-2.656 4.224-7.428 4.224-3.828 0-6.044-1.364-7.632-4.7a6 6 0 0 0-10.84 5.156c3.596 7.552 9.98 11.544 18.468 11.544 9.736 0 16.5-6.232 18.668-12.02a5.996 5.996 0 0 0-3.512-7.724z" fill="#3A312A" p-id="6087"></path><path d="M268.444 512.2c-0.48-6.24-1.68-14.96-6.72-14.96-8.04 0-7.92 4.2-9.28 14.28l-2.04 22h-15.44v30.04h18c0.16 0 0.32-0.04 0.52-0.04h2.4c0.8-0.04 1.6-0.12 2.4-0.28 0.8-0.16 1.56-0.4 2.28-0.72a13.008 13.008 0 0 0 7.92-9.56l-0.04-40.76z" fill="#FCE8CB" p-id="6088"></path><path d="M274.444 512.192c0-0.148-0.004-0.3-0.016-0.452-0.432-5.604-1.576-20.496-12.704-20.496-12.7 0-13.84 8.796-14.94 17.304l-1.844 18.972h-9.972a6 6 0 0 0-6 6v30.04a6 6 0 0 0 6 6h18c0.244 0 0.488-0.012 0.752-0.04l2.46-0.008c1.096-0.056 2.192-0.168 3.312-0.392 1.228-0.252 2.412-0.628 3.3-1.028a19.16 19.16 0 0 0 10.504-10.388c0.532-1.328 0.88-2.496 1.092-3.672 0.068-0.356 0.096-0.72 0.096-1.084l-0.04-40.756z m-12.256 40.964c-0.72 1.724-2.124 3.1-4.064 3.88a4.788 4.788 0 0 1-1.024 0.324 10.772 10.772 0 0 1-1.22 0.16h-2.4c-0.272 0-0.524 0.016-0.772 0.04H240.96v-18.04h9.44a6 6 0 0 0 5.976-5.444l2.012-21.752 0.296-2.232c0.324-2.528 0.728-5.628 1.2-6.692 0.164-0.04 0.428-0.088 0.836-0.12 0.468 0.96 1.26 3.38 1.724 9.16l0.04 39.872a8.48 8.48 0 0 1-0.296 0.844z" fill="#3A312A" p-id="6089"></path><path d="M286.564 533.52l-2.04-22c-1.36-10.08-1.24-14.28-9.28-14.28-5.04 0-6.24 8.72-6.72 14.96l-0.04 40.76a13.008 13.008 0 0 0 7.92 9.56c0.72 0.32 1.48 0.56 2.28 0.72s1.6 0.24 2.44 0.28h2.36c0.2 0 0.36 0.04 0.52 0.04h19.76v-30.04h-17.2z" fill="#FCE8CB" p-id="6090"></path><path d="M303.764 527.52h-11.732l-1.564-16.8-0.284-2.172c-1.1-8.508-2.244-17.304-14.94-17.304-11.124 0-12.272 14.892-12.704 20.496a5.788 5.788 0 0 0-0.016 0.456l-0.04 40.76c0 0.36 0.032 0.724 0.096 1.08 0.212 1.168 0.568 2.368 1.128 3.768 1.96 4.664 5.776 8.416 10.252 10.196 1.1 0.492 2.284 0.868 3.544 1.124 1.096 0.22 2.188 0.336 3.616 0.396h2.152c0.236 0.02 0.552 0.04 0.732 0.04h19.76a6 6 0 0 0 6-6v-30.04a6 6 0 0 0-6-6z m-6 30.04h-13.532a11.992 11.992 0 0 0-0.748-0.04l-2.084 0.008a10.48 10.48 0 0 1-1.512-0.164 5.872 5.872 0 0 1-1.26-0.416 6.98 6.98 0 0 1-4.148-4.636l0.04-39.872c0.46-5.78 1.252-8.2 1.724-9.16 0.408 0.032 0.672 0.084 0.836 0.12 0.472 1.064 0.876 4.164 1.2 6.692l2.308 23.984a6 6 0 0 0 5.976 5.444h11.2v18.04z" fill="#3A312A" p-id="6091"></path><path d="M343.688 473.728a15.016 15.016 0 0 0-15.016 15.016v44.792h-24.904v30.028h39.92a15.016 15.016 0 0 0 15.016-15.016v-59.808a15.02 15.02 0 0 0-15.016-15.012z" fill="#F16C7A" p-id="6092"></path><path d="M343.684 467.728a21.036 21.036 0 0 0-21.012 21.016v38.792h-18.904a6 6 0 0 0-6 6v30.032a6 6 0 0 0 6 6h39.916a21.04 21.04 0 0 0 21.016-21.016v-59.808a21.04 21.04 0 0 0-21.016-21.016z m9.016 80.824a9.024 9.024 0 0 1-9.016 9.016h-33.916v-18.032h18.904a6 6 0 0 0 6-6v-44.792a9.024 9.024 0 0 1 9.012-9.016 9.024 9.024 0 0 1 9.016 9.016v59.808z" fill="#3A312A" p-id="6093"></path><path d="M208.3 533.536v-44.792a15.016 15.016 0 0 0-30.032 0v59.808a15.016 15.016 0 0 0 15.016 15.016h41.664v-30.028h-26.648z" fill="#F16C7A" p-id="6094"></path><path d="M234.948 527.536h-20.652v-38.792a21.04 21.04 0 0 0-21.016-21.016 21.036 21.036 0 0 0-21.012 21.016v59.808a21.04 21.04 0 0 0 21.012 21.016h41.668a6 6 0 0 0 6-6v-30.032a6 6 0 0 0-6-6z m-6 30.032H193.28a9.024 9.024 0 0 1-9.012-9.016v-59.808c0-4.972 4.044-9.016 9.012-9.016s9.016 4.044 9.016 9.016v44.792a6 6 0 0 0 6 6h20.652v18.032z" fill="#3A312A" p-id="6095"></path><path d="M314.868 705.836l-28.02 3.816c-17.088 2.832-26.728 7.328-26.996 20.54h-0.06l-1.628 54.744a16.892 16.892 0 0 0 33.784 0l1.628-34.084 25.164-3.064-3.872-41.952z" fill="#FCE8CB" p-id="6096"></path><path d="M320.844 705.284a6.004 6.004 0 0 0-6.784-5.396l-28.188 3.844c-16.128 2.672-31.12 7.616-31.984 25.408-0.052 0.284-0.08 0.58-0.088 0.872l-1.628 54.92a22.904 22.904 0 0 0 22.876 22.88c12.632 0 22.908-10.26 22.9-22.592l1.384-29.024 20.136-2.448a6.004 6.004 0 0 0 5.252-6.508l-3.876-41.956z m-27.992 39.612a6.004 6.004 0 0 0-5.268 5.672l-1.632 34.368c0 6-4.892 10.88-10.908 10.88-5.996 0-10.876-4.88-10.88-10.7l1.6-53.904c0.048-0.292 0.076-0.588 0.084-0.896 0.152-7.392 3.592-11.7 21.812-14.72l21.808-2.972 2.76 29.916-19.376 2.356z" fill="#3A312A" p-id="6097"></path><path d="M258.18 784.924c0 0.3 0 0.6 0.06 0.9l1.14-41.26-1.2 40.36z" fill="#FCE8CB" p-id="6098"></path><path d="M259.552 738.572c-3.304-0.216-6.072 2.508-6.168 5.816l-1.2 40.36-0.004 0.18c0 0.696 0.04 1.392 0.176 2.084a6 6 0 0 0 11.884-1.02l1.14-41.26a6 6 0 0 0-5.828-6.16z m4.624 46.52v-0.044 0.044z" fill="#3A312A" p-id="6099"></path><path d="M937.044 424.48l-210.76-210.8v54.08l156.72 156.72c11.64 11.64 17.92 27.28 17.56 43.84-0.36 16.04-7.68 31.16-19 42.52l-155.28 155.28v54.04l110.4-110.4c2.32-2.32 6.12-2.32 8.48 0l31.52-31.52a5.96 5.96 0 0 1 0-8.48l60.36-60.36c11.36-11.36 17.6-26.44 17.6-42.48s-6.24-31.12-17.6-42.44z" fill="#6B5B51" p-id="6100"></path></svg>