<?xml version="1.0" standalone="no"?><!DOCTYPE svg PUBLIC "-//W3C//DTD SVG 1.1//EN" "http://www.w3.org/Graphics/SVG/1.1/DTD/svg11.dtd"><svg t="1742446186177" class="icon" viewBox="0 0 1024 1024" version="1.1" xmlns="http://www.w3.org/2000/svg" p-id="3844" xmlns:xlink="http://www.w3.org/1999/xlink" width="200" height="200"><path d="M495.424 558.976m-310.144 0a310.144 310.144 0 1 0 620.288 0 310.144 310.144 0 1 0-620.288 0Z" fill="#AB8EDE" p-id="3845"></path><path d="M508.416 218.112l16.96 0.448a337.92 337.92 0 0 1 223.808 99.264 338.176 338.176 0 0 1 99.648 240.768c0 90.88-35.328 176.384-99.648 240.704a338.176 338.176 0 0 1-240.768 99.712 338.176 338.176 0 0 1-240.704-99.712 338.176 338.176 0 0 1-99.712-240.704c0-90.944 35.392-176.448 99.712-240.768a338.176 338.176 0 0 1 240.704-99.712z m0 69.76c-72.32 0-140.288 28.16-191.36 79.296a268.928 268.928 0 0 0-79.36 191.36c0 72.32 28.16 140.352 79.36 191.488a268.928 268.928 0 0 0 191.36 79.232c72.32 0 140.288-28.16 191.424-79.232a268.928 268.928 0 0 0 79.296-191.424c0-72.32-28.16-140.288-79.296-191.424a268.928 268.928 0 0 0-191.36-79.36z m513.152 36.8l1.792 6.272a39.936 39.936 0 0 1-25.152 45.184l-106.176 39.68a39.936 39.936 0 0 1-28.096-74.816l106.24-39.68a39.936 39.936 0 0 1 51.392 23.36zM53.632 289.088l105.536 39.488a39.808 39.808 0 0 1-14.016 76.864 38.464 38.464 0 0 1-13.888-2.56L25.728 363.52A39.808 39.808 0 0 1 2.56 312.32a39.808 39.808 0 0 1 51.072-23.232zM861.056 54.4c17.92 12.672 22.4 37.568 9.728 55.68l-64.96 92.8a40.064 40.064 0 0 1-55.68 9.664 39.936 39.936 0 0 1-9.664-55.68l64.896-92.736a40.064 40.064 0 0 1 55.68-9.728zM171.456 46.464a39.936 39.936 0 0 1 55.68 9.728l64.96 92.8a39.936 39.936 0 1 1-65.408 45.888l-64.96-92.8a39.936 39.936 0 0 1 9.728-55.68zM508.416 0c19.264 0 34.88 15.616 34.88 34.88V133.76a34.816 34.816 0 1 1-69.76 0V34.88C473.6 15.616 489.152 0 508.416 0z m178.56 954.24h-357.12a34.88 34.88 0 1 0 0 69.76h357.12a34.88 34.88 0 1 0 0-69.76" fill="#000000" p-id="3846"></path></svg>